PathFileType	4	(X/Y/Z)	Patient4_TMGait_0pt2_01_right_24.trc.trc
DataRate	CameraRate	NumFrames	NumMarkers	Units	OrigDataRate	OrigDataStartFrame	OrigNumFrames
46.052631578947	46.052631578947	6	33	mm	46.052631578947	36	       141
Frame#	Time	Sacral			L.Shoulder			Chest			R.Shoulder			Neck			R.ASIS			L.ASIS			R.Thigh.Superior			R.Thigh.Lateral			R.Thigh.Inferior			R.Patella			L.Thigh.Superior			L.Thigh.Lateral			L.Thigh.Inferior			L.Patella			L.Shank.Superior			L.Shank.Lateral			L.Shank.Inferior			R.Shank.Superior			R.Shank.Lateral			R.Shank.Inferior			R.Heel			R.Midfoot.Superior			R.Midfoot.Lateral			R.Toe			L.Heel			L.Midfoot.Lateral			L.Midfoot.Superior			L.Toe			L.Elbow			L.Wrist			R.Elbow			R.Wrist			
		X1	Y1	Z1	X2	Y2	Z2	X3	Y3	Z3	X4	Y4	Z4	X5	Y5	Z5	X6	Y6	Z6	X7	Y7	Z7	X8	Y8	Z8	X9	Y9	Z9	X10	Y10	Z10	X11	Y11	Z11	X12	Y12	Z12	X13	Y13	Z13	X14	Y14	Z14	X15	Y15	Z15	X16	Y16	Z16	X17	Y17	Z17	X18	Y18	Z18	X19	Y19	Z19	X20	Y20	Z20	X21	Y21	Z21	X22	Y22	Z22	X23	Y23	Z23	X24	Y24	Z24	X25	Y25	Z25	X26	Y26	Z26	X27	Y27	Z27	X28	Y28	Z28	X29	Y29	Z29	X30	Y30	Z30	X31	Y31	Z31	X32	Y32	Z32	X33	Y33	Z33	

36	54.640000000000	873.374125734074	1001.674839338433	470.074140820870	1060.125343047485	1432.386106164617	304.004834485847	1141.862734054806	1368.058059528148	476.849486772971	1038.358093824092	1439.634487067568	640.318901580900	1019.081976239169	1495.000766049588	459.404957483116	1095.849666672684	941.916326967952	603.209787806049	1098.491936064269	960.864835172275	328.230296992644	1151.723059405038	746.672031342040	567.781223946503	1084.220869487029	632.389974359906	634.025823584306	1162.503388674704	584.815730740408	551.255123407577	1171.409082050496	496.766960532415	560.880338036546	1100.545535791618	729.494935939522	351.627812089968	987.627526847192	631.202885884957	283.600163193671	1050.505243051651	538.661613201479	344.835831338308	1035.369244406654	467.664389009765	350.666991869190	990.391897089093	404.879333017667	340.833361402289	875.181314033386	317.916699685867	285.439579030670	895.504382796521	193.879732222279	350.784822736798	1143.763731179943	406.920741870201	572.971007872412	1077.909925538326	305.445433726688	644.158081974945	1116.370167295794	208.023720824347	582.941860960527	981.880939394450	43.833178933652	570.031781290722	1154.544527986833	97.508593455875	595.636784296386	1069.307138177964	37.613830031586	639.739700437109	1276.212443939498	46.723331797504	616.819309973807	735.990403765899	59.447389921945	382.652915162241	813.142845224434	46.704515538930	307.306661460461	900.949406320199	99.833235616549	336.179846988994	1023.295152977445	37.852493484594	314.330846176223	1162.546883356331	1112.861772114655	152.397649837072	1406.701155237466	1017.254745589510	158.911054903800	901.605870052051	1120.887452697585	739.767026954731	890.026298704905	859.157345180857	733.509752597040	
37	54.661714285714	875.623889536157	1002.523277342839	478.328302949565	1059.907462112225	1432.873673907997	308.358464612251	1144.229637867709	1368.851995572259	480.078267969507	1043.150292208235	1440.847942451298	644.890334552506	1021.035214891955	1495.738709094430	464.041701315154	1099.581136226246	942.818739347305	608.423175368376	1098.706983525083	961.391467980590	333.443920251100	1153.004200382094	746.335667038469	572.762263653345	1084.101660613158	632.441634225821	638.505588619686	1161.665598467118	584.356938709079	555.451047271975	1169.598515828662	496.203903245674	564.437206090849	1101.198040827255	730.034999971140	355.669454164003	987.979031693268	632.134595223517	287.627135306032	1052.146489053795	538.971210256624	347.031528830431	1037.239253833673	467.413985846318	351.989985959006	990.897591046848	405.304042299770	342.287417368233	873.904948608022	320.404089152278	287.326353468717	893.566076613407	195.257072945583	350.862103013715	1141.450547643962	406.553291768587	575.765120228400	1074.995812542419	304.882608595093	646.013831205024	1112.869907779946	207.746965578730	584.044181070885	977.697492518358	43.771967292812	570.063874124789	1150.335488889942	97.497938095040	595.840014661837	1065.105256318659	37.601856998535	639.790265815947	1272.025172796769	46.642187517925	616.994755886608	732.450396713017	62.643477970644	382.532268719701	809.363435314063	48.258282445912	307.221917852153	898.043031800660	100.343660286250	335.663791985726	1019.179953801248	37.775758431720	314.233134792215	1152.977213923572	1109.742269067119	156.797868771403	1393.848600458537	1005.711667439530	161.878781985718	908.027529025055	1122.062220523074	747.423472737335	895.396386006745	860.410915189840	741.707603311807	
38	54.683428571429	877.712392000943	1003.369229232329	486.471078634758	1059.671220340407	1433.258667597398	312.663775037940	1146.531242485788	1369.534821557344	483.246032487890	1047.852133281182	1441.969958828344	649.323782490976	1022.977974503982	1496.400940509634	468.584261837297	1103.098209662958	943.589155178258	613.581345953305	1098.793766138838	961.882896654366	338.672370961359	1154.029341971283	745.955987722335	577.728647875332	1083.714886129130	632.433008819082	642.961196417350	1160.553611625332	583.864092807482	559.647639670816	1167.477489118433	495.643521055603	568.035196539826	1102.115705280337	730.621810499312	359.666155642560	988.860024263973	632.890711309370	291.570144988729	1054.553600556910	539.219684039807	349.084593000906	1039.974797277691	466.998654918829	353.046733228468	992.117225426755	405.605936949788	343.562638858218	873.233101550460	322.974766546839	289.110762888952	892.034693623227	196.729985873162	350.827752727244	1138.890857813299	406.189664624597	578.605180068953	1071.848813664245	304.302123915068	647.871707119129	1109.244128804775	207.484585635167	585.179416328616	973.457204810201	43.718774546051	570.081793142482	1146.068492622685	97.466847618478	596.040283025334	1060.850282293488	37.584258835513	639.830817184834	1267.776337132593	46.564933784291	617.162918118236	729.091693044596	66.250486880333	382.332811319808	805.686877087481	49.997905477637	307.076256502447	895.358468527343	100.859645041867	335.041014259183	1015.078696853653	37.713494736861	314.158359470542	1142.700179597903	1106.505605359758	161.493047925209	1379.399562157936	993.093434042677	165.339482034817	914.927589746182	1122.766702856955	754.926148943555	901.756091696031	861.168563125161	749.898809981576	
39	54.705142857143	879.607101737550	1004.181056582331	494.509917448798	1059.376109024244	1433.498840512491	316.906443933230	1148.731853866638	1370.075084650856	486.341727326518	1052.433943588400	1442.962514989643	653.611103543107	1024.878888904462	1496.957922651062	473.019763933252	1106.387780306762	944.203360073748	618.664362289171	1098.708209020729	962.314253192061	343.898579551587	1154.869129805717	745.547302095138	582.565066710260	1083.247899223457	632.354225613460	647.343149584761	1159.310900102845	583.348971946155	563.733664525023	1165.224045902472	495.069437459625	571.574036652478	1103.346408305952	731.268737040610	363.556054568827	990.359396005477	633.454322258808	295.379105518899	1057.850495700475	539.424425405004	350.957056344552	1043.708678218752	466.434463884019	353.801584296914	994.196230380402	405.784680882720	344.631371145245	873.313911304092	325.665974225715	290.753457485444	891.010621409568	198.352655706854	350.674852535822	1136.224619735756	405.812179054209	581.418595834537	1068.618446185906	303.713479477915	649.712954373387	1105.563887950043	207.221084748731	586.306256857952	969.161364832743	43.682068334233	570.089943021777	1141.757312586952	97.408229138869	596.228814077458	1056.543457820628	37.566159015293	639.865738568875	1263.478331379875	46.459561785000	617.319772189394	725.998088330526	70.450897307005	382.042087987703	802.162860465034	52.060118343385	306.867150238877	892.952687617118	101.431773958798	334.319294915296	1010.983671945732	37.633847231788	314.119014971097	1131.783443063519	1103.144586582742	166.595473085497	1363.217025778633	979.365558608773	169.323942401102	922.449223521873	1122.890361352534	762.236200530983	909.471315030774	861.309192481220	757.996932433851	
40	54.726857142857	881.277616264058	1004.919511019559	502.455296538055	1058.974239828099	1433.553062039008	321.073570205496	1150.795821672797	1370.434841828525	489.348495966791	1056.879388896906	1443.781490308365	657.747318308418	1026.706225098355	1497.376931990749	477.339395490419	1109.434926986373	944.637106284994	623.651686099755	1098.394795581897	962.648130161474	349.103273195982	1155.592532273152	745.116871074622	587.180370142421	1082.864542521212	632.189877521981	651.606939342598	1158.077970244384	582.817846266983	567.619861599993	1163.020410171139	494.460325482292	574.969512765630	1104.943137270232	732.002641372574	367.289358039669	992.588143897311	633.820114050375	299.007418888318	1062.174715675350	539.622634077843	352.628689169814	1048.587550118050	465.758709116852	354.245739666601	997.298913124231	405.852413097546	345.484779801352	874.323457261688	328.530469892331	292.221615531401	890.608586094702	200.199732618550	350.408920053863	1133.590673797844	405.399338957364	584.142157019081	1065.442672330061	303.121086846962	651.516888065779	1101.899435806485	206.941076713995	587.390653842819	964.820254106085	43.666742217112	570.093345517887	1137.419472420309	97.321487289508	596.401323694401	1052.194914734990	37.551034012456	639.899518158951	1259.148411863868	46.307205532731	617.463348607732	723.277526832787	75.474662119598	381.658518715056	798.856958292080	54.629482908118	306.601247006603	890.891440354507	102.141978789470	333.520043439836	1006.884983090865	37.494814125889	314.129352812596	1120.303084696617	1099.654798412075	172.210792297272	1345.166197647976	964.560054408958	173.843413597632	930.731343258495	1122.349905275516	769.317503958038	918.870775469977	860.744744132563	765.892030847558	
41	54.748571428571	882.693980850471	1005.537467391435	510.311876728224	1058.414570019767	1433.381685335207	325.153562350101	1152.687837154803	1370.568827219957	492.244521513872	1061.182296147899	1444.376239651926	661.728747688055	1028.428723281273	1497.620778878031	481.537370637035	1112.221371231270	944.864737823220	628.520833489358	1097.791228709276	962.833917134380	354.263317478756	1156.264503831177	744.663749727610	591.512053608609	1082.697641297894	631.917056774501	655.710412594831	1156.988084907378	582.270531534826	571.239727569722	1161.045142256633	493.789815325850	578.153897645418	1106.957460340521	732.861473275221	370.840168504173	995.672325967932	633.995195331918	302.419301488197	1067.662046701246	539.870827569539	354.109106081653	1054.756286206540	465.028874584018	354.407641180345	1001.591716824636	405.834296059477	346.139686041886	876.449204683208	331.632857704512	293.497792768186	890.947613576750	202.362817484061	350.054290146703	1131.122097753744	404.924939602995	586.721505838642	1062.441442647292	302.523764885357	653.258428596380	1098.315902399505	206.628443309830	588.405212054881	960.448619818036	43.674836386043	570.097070656209	1133.072553604717	97.210475341618	596.556478849092	1047.819165836927	37.540852007399	639.935780279843	1254.804388915422	46.100136791779	617.593290380695	721.057751479533	81.577076723313	381.200079982523	795.848213369457	57.926603585597	306.299506077220	889.243821901199	103.102845582426	332.681039589298	1002.771951987707	37.248842380031	314.202963757602	1108.337384540080	1096.035753635845	178.424272619622	1325.125322314501	948.787441626509	178.895098540630	939.897802174349	1121.092777049702	776.137342962326	930.233847001886	859.428761726466	773.464043356243	
